<svg version="1.1" id="Layer_1" xmlns="http://www.w3.org/2000/svg" xmlns:xlink="http://www.w3.org/1999/xlink" x="0px" y="0px"
	 width="100%" viewBox="300 300 400 400" xml:space="preserve">
<path fill="#000000" opacity="1.000000" stroke="none" 
	d="
M391.237244,599.695435 
	C372.244812,572.197083 363.344391,541.883850 363.947479,509.019928 
	C365.251495,437.960907 417.146179,379.035797 483.974396,366.787842 
	C524.860962,359.294373 563.204285,366.000458 597.652039,390.321075 
	C602.788818,393.947693 608.007507,391.775574 613.052246,391.219147 
	C626.009644,389.790039 638.973389,389.589569 651.968018,389.761780 
	C653.040100,389.775970 654.359802,389.454529 655.170898,391.241608 
	C653.280457,393.088196 650.600159,392.589874 648.390747,392.971130 
	C605.800476,400.320557 563.905823,410.149475 523.917419,427.018005 
	C492.891174,440.106018 464.431305,457.029633 441.577209,482.235352 
	C418.398834,507.798706 405.948517,537.502380 408.406464,572.428833 
	C409.848907,592.924927 415.497314,612.346130 425.724701,630.306396 
	C426.453125,631.585693 427.562958,632.708740 427.473450,634.343872 
	C422.149292,634.008789 402.485291,615.253235 391.237244,599.695435 
M395.673828,466.145416 
	C387.599487,488.346436 384.195709,512.190247 388.056030,520.404297 
	C388.509827,519.567749 388.972412,518.880798 389.277039,518.129700 
	C402.304565,486.004395 425.497681,462.757111 453.950317,444.124298 
	C485.665558,423.354889 520.792725,410.694702 557.096130,400.849121 
	C559.265930,400.260681 561.546204,399.941864 563.596069,398.471802 
	C513.947266,373.059845 428.519287,388.013306 395.673828,466.145416 
z"/>
<path fill="#000000" opacity="1.000000" stroke="none" 
	d="
M620.521362,447.439240 
	C616.113037,440.514343 611.548828,434.168976 606.064270,428.516388 
	C604.287720,426.685364 602.483521,425.581299 599.898193,426.858215 
	C577.216797,438.060913 555.273376,450.438141 538.999817,470.432831 
	C512.198975,503.362091 514.349609,542.608215 543.833618,574.485657 
	C562.303101,594.454468 584.930359,607.586670 610.191895,616.745239 
	C612.325134,617.518555 614.773621,617.725769 616.705383,620.105896 
	C612.488403,624.981812 607.679138,629.231079 602.375854,632.841675 
	C589.210693,641.804749 594.587219,642.127258 580.027527,635.032227 
	C550.966431,620.870544 525.454102,602.054016 508.570312,573.745056 
	C492.067871,546.075500 488.957458,517.011475 503.055328,487.356415 
	C511.162811,470.302216 524.136169,457.072540 539.249634,445.999512 
	C571.384338,422.455719 607.806763,409.418976 646.739868,402.754852 
	C654.934509,401.352203 663.221313,400.485046 671.470398,399.407257 
	C673.012939,399.205719 674.743469,398.365753 676.432617,401.014160 
	C659.506042,404.770844 643.120117,409.214966 627.624146,415.743683 
	C627.466431,418.449371 629.027649,419.657501 630.111267,421.051361 
	C648.596863,444.828156 659.321777,471.523651 661.462158,501.734344 
	C664.158081,539.788330 653.866943,573.794434 631.101135,604.264771 
	C627.949158,608.483521 624.857910,610.070129 619.727112,608.055847 
	C615.102478,606.240295 610.169128,605.216858 605.390869,603.781067 
	C604.627869,603.551819 603.964172,602.992065 602.985474,602.430786 
	C642.854675,554.661926 651.625305,503.434052 620.521362,447.439240 
z"/>
<path fill="#000000" opacity="1.000000" stroke="none" 
	d="
M487.312744,633.742065 
	C497.329834,630.305237 505.229095,631.477356 512.194214,640.187805 
	C517.546936,646.881836 525.219910,651.501770 532.211426,656.611633 
	C533.627197,657.646301 535.534912,658.217346 536.225464,660.763000 
	C527.693420,662.397400 519.187988,662.698364 510.660889,662.636169 
	C509.100891,662.624756 507.995667,661.357971 506.904877,660.330139 
	C499.617279,653.463013 493.205078,645.805237 486.941772,638.024414 
	C485.971985,636.819702 483.897797,635.203186 487.312744,633.742065 
z"/>
<path fill="#000000" opacity="1.000000" stroke="none" 
	d="
M466.073486,607.000488 
	C459.661255,595.238281 455.478271,583.072510 453.203125,570.294617 
	C460.643921,567.181213 465.957458,569.424500 468.475769,576.420532 
	C471.414673,584.584961 475.160675,592.373230 479.468964,599.901367 
	C480.443146,601.603577 481.223145,603.416870 482.353821,605.708618 
	C476.809082,607.622742 471.612427,607.633545 466.073486,607.000488 
z"/>
<path fill="#000000" opacity="1.000000" stroke="none" 
	d="
M460.910767,545.023682 
	C449.660797,543.425354 449.597260,543.417908 450.812561,533.010803 
	C451.582611,526.416260 453.351532,520.023682 455.253662,513.679077 
	C455.760986,511.986877 456.159668,509.755493 458.749786,510.504761 
	C461.316132,511.247131 465.898895,511.264984 465.347534,514.427673 
	C463.613220,524.376099 463.909119,534.493958 462.115356,544.393372 
	C462.074310,544.619995 461.602448,544.768494 460.910767,545.023682 
z"/>
<path fill="#000000" opacity="1.000000" stroke="none" 
	d="
M466.959076,487.889099 
	C470.862488,481.887756 475.154999,476.634430 479.704132,471.571533 
	C481.558746,469.507507 483.318695,468.956970 485.683197,470.795471 
	C488.451019,472.947510 486.905731,474.537048 485.444611,476.567139 
	C482.157074,481.135010 479.141235,485.897797 475.981354,490.558563 
	C475.025665,491.968140 474.437012,494.502899 472.071320,493.283661 
	C469.916840,492.173279 465.936127,492.544617 466.959076,487.889099 
z"/>
<path fill="#000000" opacity="1.000000" stroke="none" 
	d="
M497.321899,455.350891 
	C501.916870,450.968781 506.995087,447.795349 512.008423,444.539642 
	C513.714417,443.431763 515.588501,442.310181 517.143127,444.768921 
	C518.641968,447.139435 516.549438,447.938171 515.159668,449.024933 
	C511.498383,451.887817 507.781616,454.683868 504.200684,457.644135 
	C500.496338,460.706482 499.467896,460.474670 497.321899,455.350891 
z"/>
</svg>